#N canvas 979 33 442 445 10;
#X obj 182 134 udpreceive 3001;
#X obj 182 177 unpackOSC;
#X floatatom 41 308 5 0 0 0 - - -, f 5;
#X floatatom 308 330 5 0 0 0 - - -, f 5;
#X obj 50 379 osc~;
#X obj 114 412 *~;
#X obj 192 355 *~ 100;
#X obj 112 451 dac~;
#X msg 185 100 status;
#X obj 183 214 routeOSC /oscAddress;
#X obj 42 346 *~ 100;
#X obj 97 309 print;
#X obj 155 307 print, f 6;
#X obj 123 268 unpack f f;
#X obj 22 194 print this is from osc;
#X connect 0 0 1 0;
#X connect 1 0 9 0;
#X connect 2 0 6 0;
#X connect 2 0 10 0;
#X connect 3 0 6 0;
#X connect 4 0 5 0;
#X connect 5 0 7 0;
#X connect 5 0 7 1;
#X connect 6 0 5 1;
#X connect 8 0 0 0;
#X connect 9 0 13 0;
#X connect 9 0 14 0;
#X connect 10 0 4 0;
#X connect 13 0 2 0;
#X connect 13 0 11 0;
#X connect 13 1 3 0;
#X connect 13 1 12 0;
